HIERARCHY
ROOT Hip
{
	OFFSET 0.000000 0.000000 0.000000 
	CHANNELS 6 Xposition Yposition Zposition Xrotation Yrotation Zrotation
	JOINT LowerSpine
	{
		OFFSET 0.000000 8.345300 -5.129200 
		CHANNELS 3 Xrotation Yrotation Zrotation
		JOINT MiddleSpine
		{
			OFFSET 10.856900 0.000000 0.000000 
			CHANNELS 3 Xrotation Yrotation Zrotation
			JOINT Chest
			{
				OFFSET 15.298400 0.000000 0.000000 
				CHANNELS 3 Xrotation Yrotation Zrotation
				JOINT Neck
				{
					OFFSET 25.661800 -0.598600 0.000000 
					CHANNELS 3 Xrotation Yrotation Zrotation
					JOINT Head
					{
						OFFSET 8.882900 0.000000 0.000000 
						CHANNELS 3 Xrotation Yrotation Zrotation
						End Site
						{
							OFFSET 19.739901 0.000000 0.000000 
						}
					}
				}
				JOINT RClavicle
				{
					OFFSET 23.687799 0.000000 3.158400 
					CHANNELS 3 Xrotation Yrotation Zrotation
					JOINT RShoulder
					{
						OFFSET -15.594500 -3.948000 0.987000 
						CHANNELS 3 Xrotation Yrotation Zrotation
						JOINT RForearm
						{
							OFFSET -31.337000 0.000000 0.197400 
							CHANNELS 3 Xrotation Yrotation Zrotation
							JOINT RHand
							{
								OFFSET -26.402100 0.000000 0.000000 
								CHANNELS 3 Xrotation Yrotation Zrotation
								End Site
								{
									OFFSET -15.791900 -0.987000 0.000000 
								}
							}
						}
					}
				}
				JOINT LClavicle
				{
					OFFSET 23.687799 0.000000 -3.158400 
					CHANNELS 3 Xrotation Yrotation Zrotation
					JOINT LShoulder
					{
						OFFSET -15.594500 -3.948000 -0.987000 
						CHANNELS 3 Xrotation Yrotation Zrotation
						JOINT LForearm
						{
							OFFSET -31.337000 0.000000 -0.197400 
							CHANNELS 3 Xrotation Yrotation Zrotation
							JOINT LHand
							{
								OFFSET -26.402100 0.000000 0.000000 
								CHANNELS 3 Xrotation Yrotation Zrotation
								End Site
								{
									OFFSET -15.791900 -0.987000 0.000000 
								}
							}
						}
					}
				}
			}
		}
	}
	JOINT RThigh
	{
		OFFSET -8.882900 0.448100 0.000000 
		CHANNELS 3 Xrotation Yrotation Zrotation
		JOINT RShin
		{
			OFFSET 43.131599 0.000000 -0.493500 
			CHANNELS 3 Xrotation Yrotation Zrotation
			JOINT RFoot
			{
				OFFSET 0.000000 -44.725601 -0.404700 
				CHANNELS 3 Xrotation Yrotation Zrotation
				JOINT RToe
				{
					OFFSET 0.000000 -3.933200 12.195300 
					CHANNELS 3 Xrotation Yrotation Zrotation
					End Site
					{
						OFFSET 6.772500 0.000000 0.000000 
					}
				}
			}
		}
	}
	JOINT LThigh
	{
		OFFSET 8.882900 0.448100 0.000000 
		CHANNELS 3 Xrotation Yrotation Zrotation
		JOINT LShin
		{
			OFFSET 43.131599 0.000000 0.493500 
			CHANNELS 3 Xrotation Yrotation Zrotation
			JOINT LFoot
			{
				OFFSET 0.000000 -44.725601 0.404700 
				CHANNELS 3 Xrotation Yrotation Zrotation
				JOINT LToe
				{
					OFFSET 0.000000 -3.933200 -12.195300 
					CHANNELS 3 Xrotation Yrotation Zrotation
					End Site
					{
						OFFSET 6.772500 0.000000 0.000000 
					}
				}
			}
		}
	}
}
MOTION
Frames: 17
Frame Time: 0.016949
1.451388 84.504402 -9.238509 19.911306 2.009826 -3.494952 -89.999992 -90.000000 0.000000 0.551019 -0.095317 0.918185 1.844578 -0.282863 3.066466 0.000000 0.000000 0.000000 0.000000 0.000000 0.000000 90.054924 -0.835310 -78.721329 2.752379 21.178604 58.963142 142.240662 79.609314 -142.066406 0.000000 0.000000 0.000000 -90.011009 0.506735 -83.184006 -9.635310 -13.873095 69.130356 -156.629105 -71.740395 -156.000778 0.000000 0.000000 0.000000 -16.650459 81.945816 -121.478798 89.415451 50.038406 90.219551 -20.143429 2.260563 1.742168 179.758377 90.000000 0.000000 -100.387474 83.212418 -38.567383 -89.383698 -51.637577 90.242226 22.090809 2.786621 -2.111443 180.059845 -90.000000 0.000000 
1.503464 85.052513 -8.325527 19.035370 1.594050 -3.065666 -89.999992 -90.000000 0.000000 0.520711 -0.097666 0.932848 1.745035 -0.288534 3.104465 0.000000 0.000000 0.000000 0.000000 0.000000 0.000000 90.045769 -0.703026 -80.503128 4.722425 19.986980 59.330353 150.939270 74.398689 -150.469818 0.000000 0.000000 0.000000 -90.009842 0.469737 -83.681335 -10.406379 -13.167925 68.930191 -158.745728 -68.014854 -157.910355 0.000000 0.000000 0.000000 -14.077028 82.102921 -121.658897 89.447884 48.206551 90.197708 -20.121084 2.284457 1.747983 179.849854 90.000000 0.000000 -107.496216 83.734154 -28.846420 -89.421501 -49.668419 90.215637 22.201458 2.660700 -2.003064 180.057541 -90.000000 0.000000 
1.569839 86.012512 -7.332346 17.907776 1.669690 -2.716980 -89.999992 -90.000000 0.000000 0.491841 -0.111026 0.921071 1.643157 -0.338583 3.037117 0.000000 0.000000 0.000000 0.000000 0.000000 0.000000 90.040047 -0.572770 -82.255600 6.518150 18.652130 60.040955 155.545593 69.649643 -154.813217 0.000000 0.000000 0.000000 -90.008797 0.425047 -84.281921 -10.758266 -12.809825 68.431496 -160.380844 -64.687637 -159.358734 0.000000 0.000000 0.000000 -10.423461 82.190247 -121.925400 89.497414 45.179569 90.165977 -19.316271 2.264023 1.708266 179.870529 90.000000 0.000000 -112.697281 84.196983 -20.199520 -89.477104 -46.494598 90.178436 21.154627 2.487558 -1.844038 180.055344 -90.000000 0.000000 
1.538215 87.262611 -6.201165 16.416660 2.080152 -2.451985 -89.999992 -90.000000 0.000000 0.450349 -0.140345 0.845444 1.543126 -0.394572 2.860753 0.000000 0.000000 0.000000 0.000000 0.000000 0.000000 90.037552 -0.450151 -83.904709 8.056406 17.281960 61.218880 158.232208 65.878250 -157.290833 0.000000 0.000000 0.000000 -90.008095 0.369198 -85.032410 -10.823444 -12.602275 67.610672 -161.677963 -61.820583 -160.493408 0.000000 0.000000 0.000000 -7.214902 82.138580 -120.899101 89.554184 41.341503 90.132370 -17.538914 1.891696 1.386642 179.750610 90.000000 0.000000 -114.283768 84.470146 -14.372290 -89.539581 -42.494812 90.139748 19.063005 2.149735 -1.561021 180.129547 -90.000000 0.000000 
1.389891 88.677025 -5.038483 14.814886 2.561037 -2.255692 -89.999992 -90.000000 0.000000 0.427664 -0.140666 0.769712 1.447841 -0.422964 2.579562 0.000000 0.000000 0.000000 0.000000 0.000000 0.000000 90.037735 -0.333639 -85.471954 9.523514 15.953576 62.515129 160.022507 62.946384 -158.917450 0.000000 0.000000 0.000000 -90.008095 0.302089 -85.934059 -10.743013 -12.467983 66.570351 -162.785767 -59.237366 -161.453491 0.000000 0.000000 0.000000 -5.254251 81.982315 -118.240799 89.613701 36.868629 90.100777 -14.822358 1.329506 0.977829 179.364792 90.000000 0.000000 -114.977364 84.543045 -9.102560 -89.602402 -37.967873 90.104759 16.144655 1.556002 -1.149846 180.396744 -90.000000 0.000000 
1.258566 90.138832 -4.142301 13.516531 3.090111 -2.087982 -89.999992 -90.000000 0.000000 0.401868 -0.133712 0.660518 1.354669 -0.412043 2.208126 0.000000 0.000000 0.000000 0.000000 0.000000 0.000000 90.040443 -0.217520 -87.035019 11.048010 14.618895 63.988205 161.357422 60.612709 -160.120941 0.000000 0.000000 0.000000 -90.009216 0.226367 -86.951752 -10.578680 -12.534273 65.676430 -163.737091 -56.985706 -162.274780 0.000000 0.000000 0.000000 -3.725909 81.583046 -115.409798 89.673218 31.913265 90.073479 -11.447203 1.050627 0.797353 178.849564 90.000000 0.000000 -115.647545 84.600052 -4.211759 -89.662857 -33.103882 90.075439 12.599214 0.971151 -0.809271 180.893036 -90.000000 0.000000 
1.221142 91.553833 -3.491620 12.479010 3.596696 -1.896147 -89.999992 -90.000000 0.000000 0.373035 -0.120811 0.530423 1.257503 -0.373226 1.774261 0.000000 0.000000 0.000000 0.000000 0.000000 0.000000 90.046043 -0.097293 -88.655357 12.571716 13.257593 65.480835 162.464035 58.615978 -161.114151 0.000000 0.000000 0.000000 -90.011658 0.145548 -88.038376 -10.536078 -12.672024 65.094620 -164.576202 -55.016605 -162.999146 0.000000 0.000000 0.000000 -1.828726 80.961639 -113.571800 89.724915 27.235731 90.053658 -7.698552 1.091474 0.818958 178.336441 90.000000 0.000000 -117.902435 84.707832 1.656113 -89.715477 -28.468964 90.053856 8.788567 0.762072 -0.696519 181.492233 -90.000000 0.000000 
1.237618 92.953835 -2.928938 11.519091 3.827664 -1.649063 -89.999992 -90.000000 0.000000 0.342556 -0.106617 0.393442 1.155380 -0.329126 1.317357 0.000000 0.000000 0.000000 0.000000 0.000000 0.000000 90.054787 0.026234 -90.323318 13.814043 12.113381 66.686783 163.419662 56.883472 -161.970551 0.000000 0.000000 0.000000 -90.015472 0.063017 -89.148903 -10.781027 -12.699023 64.670685 -165.352524 -53.199646 -163.668716 0.000000 0.000000 0.000000 0.778897 80.450523 -113.364799 89.762215 23.679810 90.041641 -3.473739 1.289107 0.884666 177.926834 90.000000 0.000000 -125.332718 84.612007 11.989288 -89.756111 -24.653137 90.039879 4.791266 1.010831 -0.820057 181.718933 -90.000000 0.000000 
1.254594 94.433548 -2.554256 10.823635 3.824273 -1.358054 -89.999992 -90.000000 0.000000 0.313879 -0.096696 0.262566 1.059787 -0.298681 0.880646 0.000000 0.000000 0.000000 0.000000 0.000000 0.000000 90.066086 0.146866 -91.956383 14.657189 11.566460 67.969139 164.093964 55.949738 -162.590866 0.000000 0.000000 0.000000 -90.020462 -0.017806 -90.237701 -11.153534 -12.677163 64.299164 -166.055832 -51.623398 -164.279007 0.000000 0.000000 0.000000 4.163083 80.159225 -115.123703 89.787773 21.183504 90.034370 1.365111 1.763483 1.067493 177.722504 90.000000 0.000000 -134.015411 84.147873 22.482204 -89.785912 -21.751827 90.031120 -0.284800 0.753163 -0.613381 181.777328 -90.000000 0.000000 
1.251769 95.939461 -2.399075 10.473921 3.876639 -1.055536 -89.999992 -90.000000 0.000000 0.292425 -0.092867 0.149228 0.991633 -0.288196 0.500368 0.000000 0.000000 0.000000 0.000000 0.000000 0.000000 90.078461 0.256429 -93.444038 15.201656 11.700149 69.709541 164.362473 56.328087 -162.880386 0.000000 0.000000 0.000000 -90.026176 -0.093190 -91.254387 -11.469462 -12.810133 64.197823 -166.579956 -50.834202 -164.756775 0.000000 0.000000 0.000000 7.836347 79.926918 -118.050301 89.807533 19.232981 90.029243 5.697555 2.206934 1.162921 177.933868 90.000000 0.000000 -137.073593 83.664055 26.169773 -89.804504 -19.920938 90.026100 -6.166091 -0.676708 0.043375 182.553925 -90.000000 0.000000 
1.229445 97.226463 -2.259193 10.158288 3.931828 -0.747535 -89.999992 -90.000000 0.000000 0.283024 -0.093262 0.059559 0.967952 -0.290703 0.196895 0.000000 0.000000 0.000000 0.000000 0.000000 0.000000 90.090088 0.348730 -94.700989 15.475323 12.287167 71.679794 164.325089 57.633392 -162.916580 0.000000 0.000000 0.000000 -90.031960 -0.159734 -92.153053 -11.953161 -13.092853 64.476868 -166.864761 -51.154102 -165.061768 0.000000 0.000000 0.000000 11.213706 79.688301 -120.994003 89.820755 17.946146 90.025810 7.535806 1.849641 0.947725 178.771561 90.000000 0.000000 -135.464584 83.431244 24.646036 -89.810539 -19.371799 90.024109 -9.258739 -1.443092 0.319602 183.022629 -90.000000 0.000000 
1.186921 98.085663 -2.066812 9.744749 3.731927 -0.449399 -89.999992 -90.000000 0.000000 0.289069 -0.094117 -0.008104 0.988985 -0.291357 -0.028471 0.000000 0.000000 0.000000 0.000000 0.000000 0.000000 90.099411 0.421247 -95.690910 15.564799 13.002435 73.511604 164.240906 58.972134 -162.907394 0.000000 0.000000 0.000000 -90.037216 -0.215654 -92.909187 -12.763469 -13.301522 64.713196 -167.076874 -51.784176 -165.312424 0.000000 0.000000 0.000000 13.682786 79.502037 -123.265396 89.823936 17.711250 90.024254 6.662837 0.838017 0.628978 179.635925 90.000000 0.000000 -133.291580 83.330627 22.674847 -89.809357 -19.571781 90.023636 -7.713111 -0.410454 -0.062518 181.875229 -90.000000 0.000000 
1.138897 98.528770 -1.936830 9.402504 3.344247 -0.245735 -89.999992 -90.000000 0.000000 0.306908 -0.091434 -0.058233 1.036978 -0.275387 -0.190273 0.000000 0.000000 0.000000 0.000000 0.000000 0.000000 90.105629 0.474091 -96.413345 15.579268 13.588443 74.935753 164.280914 59.883003 -162.997894 0.000000 0.000000 0.000000 -90.041618 -0.261332 -93.527435 -13.544766 -13.399343 64.783051 -167.405991 -51.878105 -165.647903 0.000000 0.000000 0.000000 14.960316 79.413391 -124.640404 89.820351 18.193047 90.023903 5.013042 0.126487 0.381618 179.927505 90.000000 0.000000 -131.981262 83.256721 21.726957 -89.808411 -19.746773 90.023148 -4.872438 0.856089 -0.583277 180.469925 -90.000000 0.000000 
1.117972 98.695984 -1.903748 9.178246 3.004964 -0.151829 -89.999992 -90.000000 0.000000 0.323277 -0.083136 -0.093419 1.088010 -0.235267 -0.311315 0.000000 0.000000 0.000000 0.000000 0.000000 0.000000 90.108284 0.508030 -96.877434 15.518892 13.967852 75.761635 164.468933 60.368580 -163.212509 0.000000 0.000000 0.000000 -90.045151 -0.298583 -94.031990 -13.982395 -13.325192 65.123665 -167.816910 -51.612648 -166.043991 0.000000 0.000000 0.000000 15.622185 79.398506 -125.438301 89.816872 18.660343 90.023575 4.303271 0.151208 0.345149 179.932693 90.000000 0.000000 -131.206146 83.243484 21.281710 -89.809273 -19.732784 90.022247 -3.687469 1.447688 -0.806330 180.029922 -90.000000 0.000000 
1.128448 98.725586 -1.909167 8.988391 2.807875 -0.091955 -89.999992 -90.000000 0.000000 0.340084 -0.053021 -0.124366 1.127188 -0.174033 -0.413896 0.000000 0.000000 0.000000 0.000000 0.000000 0.000000 90.107208 0.523762 -97.091919 15.455821 14.115829 76.099457 164.814651 60.445469 -163.561722 0.000000 0.000000 0.000000 -90.047943 -0.329301 -94.448090 -14.161043 -12.969512 65.752480 -168.227524 -51.348320 -166.439774 0.000000 0.000000 0.000000 16.301023 79.397858 -126.103699 89.815842 18.869329 90.022812 4.527109 0.549371 0.451029 179.937866 90.000000 0.000000 -130.767548 83.297112 21.106400 -89.810646 -19.667074 90.021248 -3.741935 1.571216 -0.832451 180.027618 -90.000000 0.000000 
1.136324 98.714485 -1.915985 8.808277 2.721843 -0.037732 -89.999992 -90.000000 0.000000 0.339741 -0.037794 -0.146125 1.155431 -0.102857 -0.513025 0.000000 0.000000 0.000000 0.000000 0.000000 0.000000 90.102699 0.522901 -97.078712 15.506616 14.057098 76.288002 165.280869 60.219742 -164.014420 0.000000 0.000000 0.000000 -90.050003 -0.354474 -94.789238 -14.302261 -12.599082 66.310204 -168.631241 -51.114693 -166.830353 0.000000 0.000000 0.000000 16.920494 79.390495 -126.657501 89.815224 19.034775 90.021973 4.641538 0.773632 0.511160 179.943039 90.000000 0.000000 -130.390930 83.351822 20.941120 -89.811821 -19.620417 90.020302 -4.114664 1.480509 -0.781668 180.025711 -90.000000 0.000000 
1.126700 98.664597 -1.867303 8.579685 2.626577 0.042691 -89.999992 -90.000000 0.000000 0.354883 -0.003600 -0.191028 1.183525 -0.033981 -0.613853 0.000000 0.000000 0.000000 0.000000 0.000000 0.000000 90.095650 0.509207 -96.889847 15.649784 13.947037 76.591408 165.773270 59.926258 -164.489624 0.000000 0.000000 0.000000 -90.051285 -0.374147 -95.055611 -14.580360 -12.369072 66.750351 -169.012558 -50.976986 -167.204330 0.000000 0.000000 0.000000 17.486843 79.344711 -127.191200 89.812225 19.447062 90.021660 4.243257 0.798850 0.497357 179.948227 90.000000 0.000000 -129.991211 83.404839 20.770821 -89.811928 -19.686657 90.019585 -4.775426 1.532584 -0.778225 180.023621 -90.000000 0.000000 
